<svg version="1.1" xmlns="http://www.w3.org/2000/svg" xmlns:xlink="http://www.w3.org/1999/xlink" x="0px" y="0px" width="128px"
	 height="128px" viewBox="0 0 128 128" enable-background="new 0 0 128 128" xml:space="preserve">
<rect fill="#808080" width="128" height="128"/>
<g>
	
		<line fill="none" stroke="#FFFFFF" stroke-width="2" stroke-miterlimit="10" stroke-dasharray="2" x1="64" y1="16" x2="45.159" y2="25.371"/>
	
		<line fill="none" stroke="#FFFFFF" stroke-width="2" stroke-miterlimit="10" stroke-dasharray="2" x1="64" y1="16" x2="82.842" y2="25.371"/>
	
		<line fill="none" stroke="#FFFFFF" stroke-width="2" stroke-miterlimit="10" stroke-dasharray="2" x1="45.159" y1="25.371" x2="45.159" y2="48.399"/>
	
		<line fill="none" stroke="#FFFFFF" stroke-width="2" stroke-miterlimit="10" stroke-dasharray="2" x1="45.159" y1="48.399" x2="64" y2="57.77"/>
	
		<line fill="none" stroke="#FFFFFF" stroke-width="2" stroke-miterlimit="10" stroke-dasharray="2" x1="64" y1="57.77" x2="82.842" y2="48.399"/>
	
		<line fill="none" stroke="#FFFFFF" stroke-width="2" stroke-miterlimit="10" stroke-dasharray="2" x1="82.842" y1="25.371" x2="82.842" y2="48.399"/>
	
		<line fill="none" stroke="#FFFFFF" stroke-width="2" stroke-miterlimit="10" stroke-dasharray="2" x1="49.844" y1="80.697" x2="49.844" y2="50.729"/>
	
		<line fill="none" stroke="#FFFFFF" stroke-width="2" stroke-miterlimit="10" stroke-dasharray="2" x1="49.844" y1="80.697" x2="40.474" y2="85.283"/>
	
		<line fill="none" stroke="#FFFFFF" stroke-width="2" stroke-miterlimit="10" stroke-dasharray="2" x1="68.686" y1="90.068" x2="68.686" y2="55.439"/>
	
		<line fill="none" stroke="#FFFFFF" stroke-width="2" stroke-miterlimit="10" stroke-dasharray="2" x1="49.844" y1="80.697" x2="68.686" y2="90.068"/>
	
		<line fill="none" stroke="#FFFFFF" stroke-width="2" stroke-miterlimit="10" stroke-dasharray="2" x1="68.686" y1="90.068" x2="78.156" y2="85.383"/>
	
		<line fill="none" stroke="#FFFFFF" stroke-width="2" stroke-miterlimit="10" stroke-dasharray="2" x1="78.156" y1="85.383" x2="78.156" y2="50.729"/>
	
		<line fill="none" stroke="#FFFFFF" stroke-width="2" stroke-miterlimit="10" stroke-dasharray="2" x1="78.156" y1="85.383" x2="87.525" y2="80.598"/>
	
		<line fill="none" stroke="#FFFFFF" stroke-width="2" stroke-miterlimit="10" stroke-dasharray="2" x1="68.686" y1="90.068" x2="68.686" y2="107.414"/>
	
		<line fill="none" stroke="#FFFFFF" stroke-width="2" stroke-miterlimit="10" stroke-dasharray="2" x1="68.686" y1="107.414" x2="59.315" y2="112"/>
	
		<line fill="none" stroke="#FFFFFF" stroke-width="2" stroke-miterlimit="10" stroke-dasharray="2" x1="40.474" y1="102.629" x2="59.315" y2="112"/>
	
		<line fill="none" stroke="#FFFFFF" stroke-width="2" stroke-miterlimit="10" stroke-dasharray="2" x1="40.474" y1="85.283" x2="40.474" y2="102.629"/>
	
		<line fill="none" stroke="#FFFFFF" stroke-width="2" stroke-miterlimit="10" stroke-dasharray="2" x1="78.156" y1="102.629" x2="78.156" y2="85.383"/>
	
		<line fill="none" stroke="#FFFFFF" stroke-width="2" stroke-miterlimit="10" stroke-dasharray="2" x1="87.525" y1="97.943" x2="78.156" y2="102.629"/>
	
		<line fill="none" stroke="#FFFFFF" stroke-width="2" stroke-miterlimit="10" stroke-dasharray="2" x1="87.525" y1="97.943" x2="87.525" y2="80.598"/>
	
		<line fill="none" stroke="#FFFFFF" stroke-width="2" stroke-miterlimit="10" stroke-dasharray="2" x1="68.686" y1="97.92" x2="78.156" y2="102.629"/>
	
		<line fill="none" stroke="#FFFFFF" stroke-width="2" stroke-miterlimit="10" stroke-dasharray="2" x1="78.156" y1="75.938" x2="87.525" y2="80.598"/>
	
		<line fill="none" stroke="#FFFFFF" stroke-width="2" stroke-miterlimit="10" stroke-dasharray="2" x1="40.474" y1="85.283" x2="59.315" y2="94.654"/>
	
		<line fill="none" stroke="#FFFFFF" stroke-width="2" stroke-miterlimit="10" stroke-dasharray="2" x1="68.686" y1="90.068" x2="59.315" y2="94.654"/>
	
		<line fill="none" stroke="#FFFFFF" stroke-width="2" stroke-miterlimit="10" stroke-dasharray="2" x1="59.315" y1="94.654" x2="59.315" y2="112"/>
	
		<line fill="none" stroke="#FFFFFF" stroke-width="2" stroke-miterlimit="10" stroke-dasharray="2" x1="82.842" y1="25.371" x2="64" y2="34.741"/>
	
		<line fill="none" stroke="#FFFFFF" stroke-width="2" stroke-miterlimit="10" stroke-dasharray="2" x1="45.159" y1="25.371" x2="64" y2="34.741"/>
	
		<line fill="none" stroke="#FFFFFF" stroke-width="2" stroke-miterlimit="10" stroke-dasharray="2" x1="64" y1="34.741" x2="64" y2="57.77"/>
</g>
</svg>
